<svg xmlns="http://www.w3.org/2000/svg" xml:space="preserve" viewBox="0 0 128 128">
	<path fill="#FCC21B" d="M64 9.9C2 9.9.5 79.4.5 93.2.5 106.9 28.9 118 64 118c35 0 63.5-11.2 63.5-25 0-13.5-1.5-83-63.5-83z" />
	<path fill="#2F2F2F" d="M87.3 97a3 3 0 0 1-1.6.5 3 3 0 0 1-2.4-1.3c-.2-.3-5.8-8.5-18.5-7.7-13 .8-17.9 7.4-17.9 7.4a2.9 2.9 0 0 1-4.7-3.2c.2-.4 6.3-9 22.2-9.9a26.3 26.3 0 0 1 23.7 10.3c.9 1.3.5 3-.8 4zm16.2-40.2a3.2 3.2 0 0 0-4.3-1.9l-20.9 9.5s-1.3.7-2.7.7c-2.9 0-3.2-1.7-4-3-.3-.6-1.1-1.2-1.9-.9-1.3.6-1.3 3.6-1.1 4.3.3 2.2.9 3.9 1.5 5.1.8 1.5 2.4 3.6 3 4.1 3 3.1 8.4 5 13.8 4.7 2.2-.1 4.4-.6 6.4-1.4a16.8 16.8 0 0 0 10.2-21.2zm-79.9 0c.3-.9 1-1.6 1.7-2 .9-.3 1.8-.3 2.6.1l20.8 9.5s1.4.7 2.8.7c2.8 0 3.2-1.7 3.9-3 .3-.6 1.2-1.2 2-.9 1.3.6 1.2 3.6 1.1 4.3a16.3 16.3 0 0 1-4.5 9.2c-3.1 3.1-8.4 5-13.8 4.7-2.3-.1-4.4-.6-6.4-1.4a16.8 16.8 0 0 1-10.2-21.2z" />
</svg>
  