<svg xmlns="http://www.w3.org/2000/svg" xml:space="preserve" viewBox="0 0 128 128">
	<path fill="#ffc022" d="M114.7 70.2c-2-26-20.3-43.9-50.7-43.9s-48.8 19-50.5 45a39.2 39.2 0 0 0 15.9 36.3c7.4 5.1 17.8 8 34.7 8a58 58 0 0 0 34.5-8.8c12.5-8.4 17.2-21.7 16-36.6z" />
	<path fill="#ffc022" d="M53.7 42.6C46.3 23.4 30.1 10.3 24 8.4c-2.4-.7-5.3-.8-6.7 1.3-3.3 5.5-7.6 23 1.9 47.8l34.6-14.9z" />
	<path fill="#ffd1d1" d="M36.1 34.2c1.6-1.3 2.3-2.5.6-5.2a54 54 0 0 0-9.1-10.2c-3-2.4-5.4-3.2-6.3.7-1.6 7-1.5 16.7.3 22 .6 1.8 2.5 2.8 4 1.5l10.5-8.8z" />
	<path fill="#ff9b31" d="M54.1 45c1.1 1 3.4.8 4.8-.7 1.6-1.9 3.3-8.2 2.2-18-4.7.3-9 1-13.2 2 3.3 5.5 4.1 15 6.2 16.7zm19.8 0c-1.2 1-3.4.8-4.8-.7-1.6-1.9-3.3-8.2-2.2-18 4.7.3 9 1 13.2 2-3.3 5.5-4.1 15-6.2 16.7z" />
	<path fill="#ffc022" d="M79.9 29.2a60.6 60.6 0 0 1 24-22.2c2.4-.8 5-.6 6.4 1.5 3.3 5.5 6.1 22.3-.4 45.8l-24-11.6-6-13.5z" />
	<path fill="#ffd1d1" d="M97.5 38.2c2.5 2.5 4.5 4 5.9 5.6 1 1 2.7.6 3-.8 2.4-11.8 1.6-21.8 0-24.5-.8-1.2-2.3-1.6-3.7-1.1a34 34 0 0 0-13 12.2c-.6.8-.4 1.9.4 2.4a52 52 0 0 1 7.5 6.2z" />
	<path d="M55.7 77.8c0-3.1 4.3-4.6 8.5-4.7 4.2 0 8.7 1.3 8.7 4.4 0 3-5.2 7.1-8.5 7.1s-8.7-3.8-8.7-6.8z" />
	<path fill="none" stroke="#9e9e9e" stroke-linecap="round" stroke-miterlimit="10" stroke-width="3" d="M6.7 71c.3.4 4.4.4 14.4 5.1M2.9 82.9s6.4-2.3 17.5-.3M8.8 92.3s2.8-1.4 12.7-2.3m99.4-22.5s-3.4.3-14 6.4m15.5 4.6s-5-.4-16 2m14.1 8.5s-4.9-1.7-14.8-2.2" />
	<path fill="#000200" d="M96 66.4c-.2 5.5-3.7 8.5-7.6 8.5s-7-3.9-7-8.7c0-4.7 3.3-8.7 7.6-8.4 5.1.3 7.4 4 7 8.6zm-50-.6c.8 5.6-1.6 9-5.5 9.8-3.9.8-7.3-1.8-8.2-6.6-1-4.8.9-9.3 5.3-10 5.2-.7 7.8 2.2 8.4 6.8z" />
	<path d="M45 85.2c-2.6 1.6.5 5.5 2.2 6.8 1.8 1.3 5 3 9.7 2.4 5.6-.5 7.1-4.6 7.1-4.6s2 4.6 8.9 4.7c7 .2 9-3.5 10-4.6 1-1.2 1.9-4 .3-5.2-1.6-1.1-2.7.3-4.4 2.6-1.7 2.4-5.2 3.7-8.6 2s-3.5-7-3.5-7l-4.8.3s-.8 4.7-3 6.2c-2.1 1.5-7.3 1.9-9.4-1.4-1-1.5-2.4-3.7-4.5-2.2z" />
</svg>
  