<?xml version="1.0" encoding="UTF-8" standalone="no"?>
<!-- Created with Inkscape (http://www.inkscape.org/) -->

<svg
   width="254.59392mm"
   height="141.93706mm"
   viewBox="0 0 254.59392 141.93706"
   version="1.1"
   id="svg5"
   inkscape:version="1.1.1 (eb90963e84, 2021-10-02)"
   sodipodi:docname="chat.svg"
   xmlns:inkscape="http://www.inkscape.org/namespaces/inkscape"
   xmlns:sodipodi="http://sodipodi.sourceforge.net/DTD/sodipodi-0.dtd"
   xmlns="http://www.w3.org/2000/svg"
   xmlns:svg="http://www.w3.org/2000/svg">
  <sodipodi:namedview
     id="namedview7"
     pagecolor="#121212"
     bordercolor="#eeeeee"
     borderopacity="1"
     inkscape:pageshadow="0"
     inkscape:pageopacity="0"
     inkscape:pagecheckerboard="true"
     inkscape:document-units="mm"
     showgrid="false"
     inkscape:object-paths="false"
     inkscape:snap-others="false"
     inkscape:snap-nodes="false"
     inkscape:object-nodes="false"
     inkscape:snap-intersection-paths="false"
     inkscape:snap-midpoints="true"
     inkscape:zoom="0.49056442"
     inkscape:cx="418.90522"
     inkscape:cy="26.500087"
     inkscape:window-width="1360"
     inkscape:window-height="731"
     inkscape:window-x="0"
     inkscape:window-y="0"
     inkscape:window-maximized="1"
     inkscape:current-layer="layer1"
     borderlayer="false"
     showborder="true"
     lock-margins="false"
     fit-margin-top="0"
     fit-margin-left="0"
     fit-margin-right="0"
     fit-margin-bottom="0" />
  <defs
     id="defs2">
    <inkscape:path-effect
       effect="fillet_chamfer"
       id="path-effect43279"
       is_visible="true"
       lpeversion="1"
       satellites_param="F,0,0,1,0,2.9104167,0,1 @ F,0,0,1,0,2.9104167,0,1 @ F,0,0,1,0,2.9104167,0,1 @ F,0,0,1,0,2.9104167,0,1"
       unit="px"
       method="auto"
       mode="F"
       radius="11"
       chamfer_steps="1"
       flexible="false"
       use_knot_distance="true"
       apply_no_radius="true"
       apply_with_radius="true"
       only_selected="false"
       hide_knots="false" />
    <inkscape:path-effect
       effect="fillet_chamfer"
       id="path-effect20963"
       is_visible="true"
       lpeversion="1"
       satellites_param="F,0,0,1,0,0,0,1 @ F,0,0,1,0,0,0,1 @ F,0,0,1,0,8.2020833,0,1 @ F,0,0,1,0,8.2020833,0,1"
       unit="px"
       method="auto"
       mode="F"
       radius="31"
       chamfer_steps="1"
       flexible="false"
       use_knot_distance="true"
       apply_no_radius="true"
       apply_with_radius="true"
       only_selected="false"
       hide_knots="false" />
    <linearGradient
       x1="0.71004629"
       y1="1"
       x2="0"
       y2="1"
       id="linearGradient-1"
       inkscape:swatch="gradient">
      <stop
         stop-color="#394A9F"
         offset="0%"
         id="stop4022" />
      <stop
         stop-color="#6176B9"
         offset="100%"
         id="stop4024" />
    </linearGradient>
  </defs>
  <g
     inkscape:label="Layer 1"
     inkscape:groupmode="layer"
     id="layer1"
     style="display:inline"
     transform="translate(49.42023,22.139405)">
    <path
       id="rect117"
       style="display:inline;fill:#221213;stroke-width:0.191296"
       d="M -49.42023,-22.139405 H 5.6650736 V 119.79766 H -49.42023 Z" />
    <path
       id="rect20923"
       d="M -41.460096,-22.139405 H -2.29506 V 94.63731 a 13.129451,13.129451 0 0 1 -13.129451,13.12947 H -28.330648 A 13.129451,13.129451 0 0 1 -41.460096,94.63731 Z"
       style="display:inline;fill:#311f1f;fill-opacity:1;stroke-width:0.270875;stroke-miterlimit:4;stroke-dasharray:none;paint-order:stroke fill markers" />
    <path
       id="rect22076"
       style="display:inline;fill:#ffffff;stroke-width:0.307656;paint-order:stroke fill markers"
       d="m -49.071899,58.795566 c 1.282806,-0.885412 3.406553,1.048648 3.406553,2.351255 v 24.269167 c 0,1.302611 -1.519322,2.351276 -3.406553,2.351276 z"
       sodipodi:nodetypes="csscc" />
    <g
       id="g22495"
       transform="matrix(0.35314117,0,0,0.35314117,-44.478613,51.842226)"
       style="display:inline">
      <path
         style="fill:#ffd3b0;stroke-width:0.856936"
         d="m 41.301508,19.429441 c 0,0 8.363691,-4.344664 22.520267,-4.344664 14.156576,0 23.968488,3.539144 23.968488,3.539144 0,0 1.611039,-3.85621 4.019028,-5.150182 2.407989,-1.293973 6.598404,-1.928106 10.137549,-0.479884 3.53914,1.448221 12.38272,10.857373 12.87117,11.662893 0.47988,0.805519 0.82266,1.970952 0.65984,2.288018 -0.16282,0.325635 -8.62934,13.813801 -8.62934,13.813801 0,0 1.2854,3.119246 2.53653,7.481048 0.5313,1.86812 4.139,11.560061 2.21089,23.14583 -1.9281,11.585769 -10.25752,23.95992 -25.09107,27.98752 C 71.705582,103.39198 48.705431,104.1975 34.231789,96.956405 20.195184,89.94667 15.567732,79.106435 14.925031,67.846301 14.282329,56.586168 18.781241,47.159876 18.781241,47.159876 l 5.467249,-7.455339 c 0,0 -11.482937,-11.362966 -11.800003,-12.322734 -0.325636,-0.968337 1.028323,-2.79361 5.527234,-6.658389 4.498912,-3.86478 8.663619,-7.301092 11.362966,-8.183735 2.776471,-0.908352 5.85287,-0.505592 7.780975,1.268264 1.928105,1.765288 4.181846,5.621498 4.181846,5.621498 z"
         id="path3541" />
      <path
         style="fill:#ffa5a8;stroke-width:0.856936"
         d="m 89.315608,20.800538 c -1.602469,0.93406 0.257081,4.378941 1.122586,6.435586 1.525345,3.616268 3.950473,10.78025 7.960931,15.279161 4.661725,5.227307 10.617435,4.66173 10.617435,4.66173 0,0 -1.20828,-4.104722 -1.68817,-5.064489 0.0771,-0.719826 3.46202,-6.032827 4.42179,-7.883808 0.96834,-1.850981 2.97357,-4.987365 3.37633,-6.598404 0.40276,-1.611039 -0.56558,-1.122585 -1.12259,-0.882643 -0.56558,0.239942 -11.90284,7.001163 -11.90284,7.001163 0,0 -2.733617,1.045462 -3.616261,0.07713 C 97.602175,32.857626 95.991136,28.435839 94.782857,25.539397 94.097309,23.89408 92.21205,19.11238 89.315608,20.800543 Z"
         id="path3543" />
      <path
         style="fill:#fd7e89;stroke-width:0.856936"
         d="m 98.407695,34.245857 c 0.479884,1.448221 2.476545,1.628178 4.464635,1.148294 2.91358,-0.702688 4.73028,-2.673639 6.57269,-4.044736 2.53653,-1.86812 5.06449,-2.416559 5.67292,-3.076399 0.59985,-0.65984 0.84836,-2.536529 -0.53987,-2.168047 -1.38824,0.359913 -3.13639,0.539869 -5.97284,2.416558 -2.44227,1.611039 -4.47321,3.350618 -6.21279,4.224693 -1.57676,0.779811 -4.464629,0.06856 -3.984745,1.499637 z"
         id="path3545" />
      <path
         style="fill:#ffa5a8;stroke-width:0.856936"
         d="m 30.606952,33.226104 c 0.299927,-0.359913 3.376326,-7.72099 4.044736,-9.169211 0.65984,-1.448221 2.536529,-5.432972 4.64459,-3.676254 2.108062,1.756718 -0.539869,8.569356 -3.256355,13.333918 -2.716486,4.764562 -5.732899,9.169211 -7.780975,11.03733 -1.174002,1.07117 -3.376326,2.53653 -5.85287,2.776471 -1.448221,0.14568 -3.924765,0.179957 -3.924765,0.179957 0,0 0.659841,-1.928105 1.448221,-3.556283 0.26565,-0.557008 0.908352,-1.868119 1.148294,-2.416558 0,-0.419898 -1.86812,-3.076399 -3.136384,-5.004504 -0.702687,-1.071169 -5.073059,-8.209443 -5.133044,-9.057809 -0.05999,-0.848366 1.028322,-0.479884 2.168047,-0.239942 1.139724,0.239942 8.749312,3.984751 8.749312,3.984751 z"
         id="path3547" />
      <path
         style="fill:#fd7c88;stroke-width:0.856936"
         d="m 22.457494,32.73765 c 2.545099,1.371097 3.873349,2.356573 6.212783,2.048076 1.86812,-0.239942 2.596515,-1.208279 2.288018,-1.928105 -0.299927,-0.719826 -1.508206,-0.479884 -2.356573,-0.65984 -1.953813,-0.419898 -3.530574,-1.619608 -5.064489,-2.416558 -2.108061,-1.088309 -4.344663,-2.53653 -6.872623,-3.016414 -2.13377,-0.402759 -4.704576,-0.359913 -4.104722,1.028323 0.599855,1.388236 2.570807,1.19971 4.464635,2.108062 1.876689,0.908351 3.864779,1.99666 5.432971,2.836456 z"
         id="path3549" />
      <path
         style="fill:#312f2c;stroke-width:0.856936"
         d="m 40.555974,75.027421 c -1.379667,1.482499 -0.239942,3.384896 1.808134,4.884533 2.476544,1.808134 7.001164,5.304431 20.326512,5.304431 14.053743,0 18.792597,-4.464634 20.420775,-5.672913 1.465359,-1.088308 3.230647,-2.956428 1.842411,-4.464635 -1.388236,-1.508206 -4.944518,1.148294 -5.912855,1.688163 -0.968338,0.53987 -8.38083,4.404649 -16.041834,4.284678 -6.212783,-0.09426 -12.665508,-2.168047 -14.593613,-2.956427 -3.564852,-1.439652 -6.221353,-4.815978 -7.84953,-3.06783 z"
         id="path3551" />
      <path
         style="fill:#fd7e84;stroke-width:0.856936"
         d="M 63.479001,58.857047 C 56.786334,58.531411 46.888728,63.321681 47.008699,71.951022 47.12867,80.580364 55.329543,82.131417 63.170504,82.328512 70.53158,82.508469 79.272323,79.43207 79.212338,71.711081 79.169491,64.701347 73.308052,59.3455 63.479001,58.857047 Z"
         id="path3553" />
      <path
         style="fill:#2c2f31;stroke-width:0.856936"
         d="m 91.28656,58.557119 c 0,3.59913 -1.928105,6.932609 -5.158752,6.872624 -3.050691,-0.05999 -5.218738,-2.913581 -5.218738,-6.512711 0,-3.599129 2.467975,-6.51271 5.218738,-6.51271 2.750763,0 5.158752,2.553668 5.158752,6.152797 z"
         id="path3555" />
      <path
         style="fill:#2c2f31;stroke-width:0.856936"
         d="m 45.749003,58.797061 c 0,3.59913 -1.808134,6.452725 -5.038781,6.512711 -3.290632,0.05999 -5.338708,-2.733625 -5.338708,-6.332754 0,-3.59913 2.562237,-6.512711 5.304431,-6.512711 2.742194,0 5.073058,2.733625 5.073058,6.332754 z"
         id="path3557" />
      <path
         style="fill:#2c2f31;stroke-width:0.856936"
         d="m 72.468255,71.094087 c 0,3.599129 -0.865505,6.889762 -3.016414,6.932609 -2.536529,0.05998 -3.016413,-3.162093 -3.016413,-6.752653 0,-3.59056 0.848366,-6.272768 3.016413,-6.212783 2.219464,0.05999 3.016414,2.433697 3.016414,6.032827 z"
         id="path3559" />
      <path
         style="fill:#2c2f31;stroke-width:0.856936"
         d="m 60.334047,70.794159 c 0,3.59913 -0.865505,6.889763 -3.016413,6.932609 -2.53653,0.05999 -3.016414,-3.162092 -3.016414,-6.752652 0,-3.59056 0.848367,-6.272769 3.016414,-6.212783 2.219463,0.05998 3.016413,2.433697 3.016413,6.032826 z"
         id="path3561" />
      <g
         id="g4067"
         transform="translate(-62.885543,-63.482)">
        <g
           transform="matrix(0.85693558,0,0,0.85693558,93.545323,143.49956)"
           id="g4065"
           inkscape:transform-center-x="-62.646439"
           inkscape:transform-center-y="-17.162904">
          <path
             d="m 24.316,17.97 c 0,-0.921 0.741,-1.736 1.917,-2.431 C 26.266,14.98 26.57,14.46 27.08,13.983 18.707,9.82 1.495,1.883 1.126,6.783 c -0.506,6.491 0,32.941 3.49,34.942 2.234,1.274 13.234,-4.38 20.883,-8.627 -2.207,-1.881 -1.183,-6.447 -1.183,-15.128"
             fill="#65bc46"
             id="path4057" />
          <path
             d="m 45.925,28.686 c 0.036,0.014 0.075,0.029 0.111,0.043 6.854,2.645 20.498,7.624 23.461,6.537 3.995,-1.527 2.995,-33.453 -1.489,-34.47 -3.592,-0.797 -17.343,8.892 -22.753,12.839 0.957,4.041 2.115,12.045 0.67,15.051"
             fill="#65bc46"
             id="path4059" />
          <path
             d="m 29.214,31.611 c -4.495,-0.996 -2.993,-5.493 -2.993,-15.971 0,-0.034 0.01,-0.067 0.012,-0.101 -1.176,0.695 -1.917,1.51 -1.917,2.431 0,8.681 -1.024,13.247 1.183,15.128 0.456,0.389 1.04,0.672 1.811,0.843 4.48,1.004 12.965,0 15.969,-1.993 0.503,-0.334 0.848,-0.998 1.074,-1.874 -3.516,1.684 -11.024,2.473 -15.139,1.537"
             fill="#43a244"
             id="path4061" />
          <path
             d="m 27.08,13.983 c -0.51,0.477 -0.814,0.997 -0.847,1.556 -0.002,0.034 -0.012,0.067 -0.012,0.101 0,10.478 -1.502,14.975 2.993,15.971 4.115,0.936 11.623,0.147 15.139,-1.537 0.305,-0.146 0.591,-0.296 0.831,-0.456 0.301,-0.201 0.544,-0.522 0.741,-0.932 1.445,-3.006 0.287,-11.01 -0.67,-15.051 -0.211,-0.889 -0.411,-1.589 -0.572,-1.999 -0.413,-1.022 -3.594,-1.285 -7.203,-0.932 -4.014,0.393 -8.549,1.55 -10.4,3.279"
             fill="#65bc46"
             id="path4063" />
        </g>
      </g>
    </g>
    <path
       id="rect22541"
       style="display:inline;fill:#4f3332;stroke-width:1.01127;paint-order:stroke fill markers"
       d="M 4.7642727,-22.139405 H 205.17369 V 119.79765 H 4.7642727 Z" />
    <path
       id="rect34067"
       d="M 15.066317,-13.077282 H 192.84962 a 4.6588375,4.6588375 0 0 1 4.65885,4.6588437 V 15.406985 a 4.6588375,4.6588375 0 0 1 -4.65885,4.658844 H 15.066317 A 4.6588375,4.6588375 0 0 1 10.407481,15.406985 V -8.4184383 a 4.6588375,4.6588375 0 0 1 4.658836,-4.6588437 z"
       style="display:inline;fill:#311f1f;fill-opacity:1;stroke-width:0.260921;stroke-miterlimit:4;stroke-dasharray:none;paint-order:stroke fill markers" />
    <path
       d="M 20.641542,9.7445453 21.13462,6.9666745 h -2.777887 l 0.243058,-1.3889511 h 2.777871 l 0.73615,-4.1668055 h -2.777886 l 0.243057,-1.38893512 h 2.777871 L 22.849932,-2.755904 h 1.388935 l -0.493078,2.77788678 h 4.166822 L 28.405689,-2.755904 h 1.388935 l -0.493078,2.77788678 h 2.777886 L 31.836359,1.4109179 H 29.058505 L 28.32237,5.5777234 h 2.777886 L 30.857199,6.9666745 H 28.079328 L 27.586251,9.7445453 H 26.1973 l 0.493077,-2.7778708 h -4.166822 l -0.493061,2.7778708 z m 2.861206,-8.3336274 -0.736135,4.1668055 h 4.166822 L 27.66957,1.4109179 Z"
       fill="#99ffffff"
       id="path69628"
       style="display:inline;fill:#fdd5ae;fill-opacity:1;stroke-width:0.694466" />
    <g
       aria-label="chat"
       id="text96762"
       style="font-size:8.46667px;line-height:1.25;display:inline;fill:#fdd5ae;stroke-width:0.264582"
       transform="matrix(1.6007459,0,0,1.6007459,-91.86927,-254.45905)">
      <path
         d="m 86.044907,159.84965 v 0.71107 q -0.322461,-0.17777 -0.649057,-0.26459 -0.322461,-0.0909 -0.65319,-0.0909 -0.740007,0 -1.149284,0.47129 -0.409278,0.46716 -0.409278,1.31465 0,0.8475 0.409278,1.31879 0.409277,0.46715 1.149284,0.46715 0.330729,0 0.65319,-0.0868 0.326596,-0.0909 0.649057,-0.26871 v 0.7028 q -0.318327,0.14882 -0.661459,0.22324 -0.338997,0.0744 -0.72347,0.0744 -1.045932,0 -1.661915,-0.65732 -0.615983,-0.65733 -0.615983,-1.77354 0,-1.13275 0.620117,-1.7818 0.624252,-0.64906 1.70739,-0.64906 0.3514,0 0.686263,0.0744 0.334864,0.0703 0.649057,0.21497 z"
         id="path1719" />
      <path
         d="m 91.216686,161.50743 v 2.79466 h -0.760677 v -2.76985 q 0,-0.65733 -0.256315,-0.98392 -0.256316,-0.3266 -0.768946,-0.3266 -0.615983,0 -0.971517,0.39274 -0.355534,0.39274 -0.355534,1.07074 v 2.61689 h -0.764812 v -6.43268 h 0.764812 v 2.52181 q 0.272851,-0.41755 0.640788,-0.62425 0.37207,-0.20671 0.855762,-0.20671 0.797884,0 1.207162,0.4961 0.409277,0.49196 0.409277,1.45107 z"
         id="path1721" />
      <path
         d="m 94.838171,161.97459 q -0.921908,0 -1.277442,0.21084 -0.355534,0.21084 -0.355534,0.71933 0,0.40515 0.264584,0.64492 0.268717,0.23565 0.727604,0.23565 0.63252,0 1.012859,-0.44649 0.384473,-0.45061 0.384473,-1.19476 v -0.16949 z m 1.517221,-0.3142 v 2.6417 h -0.760677 v -0.7028 q -0.26045,0.42168 -0.649057,0.62426 -0.388607,0.19843 -0.950846,0.19843 -0.711068,0 -1.132748,-0.39687 -0.417546,-0.40101 -0.417546,-1.07074 0,-0.78135 0.520899,-1.17822 0.525033,-0.39688 1.562696,-0.39688 h 1.066602 v -0.0744 q 0,-0.52503 -0.347266,-0.81029 -0.343132,-0.28939 -0.967383,-0.28939 -0.396875,0 -0.77308,0.0951 -0.376205,0.0951 -0.72347,0.28525 v -0.7028 q 0.417545,-0.16123 0.810286,-0.23978 0.392741,-0.0827 0.764812,-0.0827 1.00459,0 1.500684,0.5209 0.496094,0.5209 0.496094,1.57923 z"
         id="path1723" />
      <path
         d="m 98.674632,158.35723 v 1.31465 h 1.566828 v 0.59118 h -1.566828 v 2.51354 q 0,0.56638 0.152962,0.72761 0.157096,0.16123 0.63252,0.16123 h 0.781346 v 0.63665 h -0.781346 q -0.880567,0 -1.21543,-0.32659 -0.334864,-0.33073 -0.334864,-1.1989 v -2.51354 h -0.558105 v -0.59118 h 0.558105 v -1.31465 z"
         id="path1725" />
    </g>
    <path
       d="m 20.641527,45.433448 0.493077,-2.77787 h -2.777871 l 0.243042,-1.388952 h 2.777887 l 0.736134,-4.166805 h -2.77787 l 0.243042,-1.388936 h 2.777886 l 0.493061,-2.777886 h 1.388952 l -0.493078,2.777886 h 4.166822 l 0.493078,-2.777886 h 1.388935 l -0.493078,2.777886 h 2.777886 l -0.243089,1.388936 h -2.777838 l -0.736135,4.166805 h 2.77787 l -0.243041,1.388952 h -2.777887 l -0.493077,2.77787 H 26.1973 l 0.493077,-2.77787 h -4.166822 l -0.493077,2.77787 z m 2.861221,-8.333627 -0.736135,4.166805 h 4.166822 l 0.736135,-4.166805 z"
       fill="#99ffffff"
       id="path69628-2"
       style="display:inline;fill:#fdd5ae;fill-opacity:1;stroke-width:0.694466" />
    <g
       aria-label="commands"
       id="text96762-5"
       style="font-size:8.46667px;line-height:1.25;display:inline;fill:#fdd5ae;stroke-width:0.264582"
       transform="matrix(1.6007459,0,0,1.6007459,-91.86927,-254.45905)">
      <path
         d="m 86.044907,182.14482 v 0.71106 q -0.322461,-0.17776 -0.649057,-0.26458 -0.322461,-0.0909 -0.65319,-0.0909 -0.740007,0 -1.149284,0.47129 -0.409278,0.46715 -0.409278,1.31465 0,0.84749 0.409278,1.31878 0.409277,0.46716 1.149284,0.46716 0.330729,0 0.65319,-0.0868 0.326596,-0.0909 0.649057,-0.26872 v 0.7028 q -0.318327,0.14883 -0.661459,0.22324 -0.338997,0.0744 -0.72347,0.0744 -1.045932,0 -1.661915,-0.65733 -0.615983,-0.65732 -0.615983,-1.77353 0,-1.13275 0.620117,-1.78181 0.624252,-0.64905 1.70739,-0.64905 0.3514,0 0.686263,0.0744 0.334864,0.0703 0.649057,0.21498 z"
         id="path1702" />
      <path
         d="m 89.16203,182.50035 q -0.611849,0 -0.967383,0.47956 -0.355534,0.47542 -0.355534,1.30638 0,0.83096 0.3514,1.31051 0.355534,0.47543 0.971517,0.47543 0.607716,0 0.96325,-0.47956 0.355534,-0.47956 0.355534,-1.30638 0,-0.82269 -0.355534,-1.30225 -0.355534,-0.48369 -0.96325,-0.48369 z m 0,-0.64492 q 0.992188,0 1.558562,0.64492 0.566374,0.64492 0.566374,1.78594 0,1.13688 -0.566374,1.78594 -0.566374,0.64492 -1.558562,0.64492 -0.996322,0 -1.562695,-0.64492 -0.56224,-0.64906 -0.56224,-1.78594 0,-1.14102 0.56224,-1.78594 0.566373,-0.64492 1.562695,-0.64492 z"
         id="path1704" />
      <path
         d="m 96.15282,182.85588 q 0.285254,-0.51263 0.68213,-0.75654 0.396875,-0.24391 0.93431,-0.24391 0.72347,0 1.116211,0.50849 0.392741,0.50437 0.392741,1.43868 v 2.79466 h -0.764811 v -2.76986 q 0,-0.66559 -0.235645,-0.98805 -0.235644,-0.32246 -0.719336,-0.32246 -0.591179,0 -0.93431,0.39274 -0.343132,0.39274 -0.343132,1.07073 v 2.6169 h -0.764811 v -2.76986 q 0,-0.66973 -0.235645,-0.98805 -0.235645,-0.32246 -0.727605,-0.32246 -0.58291,0 -0.926042,0.39687 -0.343131,0.39274 -0.343131,1.0666 v 2.6169 h -0.764812 v -4.63021 h 0.764812 v 0.71934 q 0.260449,-0.42582 0.624251,-0.62839 0.363803,-0.20257 0.864031,-0.20257 0.504362,0 0.855762,0.25631 0.355534,0.25632 0.525032,0.74414 z"
         id="path1706" />
      <path
         d="m 104.40038,182.85588 q 0.28526,-0.51263 0.68213,-0.75654 0.39688,-0.24391 0.93431,-0.24391 0.72347,0 1.11621,0.50849 0.39274,0.50437 0.39274,1.43868 v 2.79466 h -0.76481 v -2.76986 q 0,-0.66559 -0.23564,-0.98805 -0.23565,-0.32246 -0.71934,-0.32246 -0.59118,0 -0.93431,0.39274 -0.34313,0.39274 -0.34313,1.07073 v 2.6169 h -0.76481 v -2.76986 q 0,-0.66973 -0.23565,-0.98805 -0.23564,-0.32246 -0.7276,-0.32246 -0.58291,0 -0.92604,0.39687 -0.34313,0.39274 -0.34313,1.0666 v 2.6169 h -0.76482 v -4.63021 h 0.76482 v 0.71934 q 0.26045,-0.42582 0.62425,-0.62839 0.3638,-0.20257 0.86403,-0.20257 0.50436,0 0.85576,0.25631 0.35553,0.25632 0.52503,0.74414 z"
         id="path1708" />
      <path
         d="m 111.14726,184.26975 q -0.92191,0 -1.27744,0.21084 -0.35554,0.21084 -0.35554,0.71934 0,0.40514 0.26459,0.64492 0.26871,0.23564 0.7276,0.23564 0.63252,0 1.01286,-0.44648 0.38447,-0.45062 0.38447,-1.19476 v -0.1695 z m 1.51722,-0.31419 v 2.6417 h -0.76068 v -0.7028 q -0.26045,0.42168 -0.64905,0.62425 -0.38861,0.19844 -0.95085,0.19844 -0.71107,0 -1.13275,-0.39688 -0.41754,-0.40101 -0.41754,-1.07073 0,-0.78135 0.52089,-1.17823 0.52504,-0.39687 1.5627,-0.39687 h 1.0666 v -0.0744 q 0,-0.52504 -0.34726,-0.81029 -0.34313,-0.28939 -0.96739,-0.28939 -0.39687,0 -0.77308,0.0951 -0.3762,0.0951 -0.72347,0.28525 v -0.7028 q 0.41755,-0.16123 0.81029,-0.23978 0.39274,-0.0827 0.76481,-0.0827 1.00459,0 1.50069,0.5209 0.49609,0.5209 0.49609,1.57923 z"
         id="path1710" />
      <path
         d="m 118.08017,183.8026 v 2.79466 h -0.76067 v -2.76986 q 0,-0.65732 -0.25632,-0.98392 -0.25632,-0.32659 -0.76895,-0.32659 -0.61598,0 -0.97151,0.39274 -0.35554,0.39274 -0.35554,1.07073 v 2.6169 h -0.76481 v -4.63021 h 0.76481 v 0.71934 q 0.27285,-0.41755 0.64079,-0.62426 0.37207,-0.2067 0.85576,-0.2067 0.79789,0 1.20717,0.49609 0.40927,0.49196 0.40927,1.45108 z"
         id="path1712" />
      <path
         d="m 122.64424,182.66985 v -2.50528 h 0.76067 v 6.43269 h -0.76067 v -0.69453 q -0.23978,0.41341 -0.60772,0.61598 -0.3638,0.19844 -0.87643,0.19844 -0.83923,0 -1.36839,-0.66973 -0.52504,-0.66972 -0.52504,-1.76113 0,-1.09141 0.52504,-1.76113 0.52916,-0.66973 1.36839,-0.66973 0.51263,0 0.87643,0.20257 0.36794,0.19844 0.60772,0.61185 z m -2.5921,1.61644 q 0,0.83922 0.34314,1.31878 0.34726,0.47542 0.95084,0.47542 0.60358,0 0.95085,-0.47542 0.34727,-0.47956 0.34727,-1.31878 0,-0.83923 -0.34727,-1.31465 -0.34727,-0.47956 -0.95085,-0.47956 -0.60358,0 -0.95084,0.47956 -0.34314,0.47542 -0.34314,1.31465 z"
         id="path1714" />
      <path
         d="m 127.9235,182.10348 v 0.71933 q -0.32246,-0.16536 -0.66972,-0.24805 -0.34727,-0.0827 -0.71934,-0.0827 -0.56637,0 -0.85163,0.17363 -0.28112,0.17364 -0.28112,0.5209 0,0.26459 0.20257,0.41755 0.20257,0.14883 0.81442,0.28525 l 0.26045,0.0579 q 0.81029,0.17363 1.14929,0.49196 0.34313,0.31419 0.34313,0.88057 0,0.64492 -0.51263,1.02112 -0.5085,0.37621 -1.40147,0.37621 -0.37207,0 -0.77721,-0.0744 -0.40101,-0.0703 -0.84749,-0.21497 v -0.78548 q 0.42168,0.21911 0.83095,0.33073 0.40928,0.10748 0.81029,0.10748 0.53743,0 0.82682,-0.1819 0.28939,-0.18603 0.28939,-0.52089 0,-0.31006 -0.21084,-0.47543 -0.2067,-0.16536 -0.91364,-0.31833 l -0.26458,-0.062 q -0.70694,-0.14883 -1.02113,-0.45475 -0.31419,-0.31006 -0.31419,-0.84749 0,-0.65319 0.46302,-1.00873 0.46302,-0.35553 1.31465,-0.35553 0.42168,0 0.79375,0.062 0.37207,0.062 0.68626,0.18604 z"
         id="path1716" />
    </g>
    <path
       d="m -14.075594,-17.967216 h -7.801979 l -1.411183,-1.847101 c -0.330594,-0.661202 -1.006457,-1.078632 -1.744722,-1.078632 h -5.621328 c -0.53931,0 -0.975249,0.435932 -0.975249,0.975273 v 13.653432 c 0,1.0766791 0.872846,1.9505109 1.950498,1.9505109 h 15.603963 c 1.076669,0 1.950493,-0.8738318 1.950493,-1.9505109 v -9.752462 c 0,-1.076662 -0.873824,-1.95051 -1.950493,-1.95051 z"
       fill="#ffffffff"
       id="path122412"
       style="display:inline;fill:#feb87c;fill-opacity:1;stroke-width:0.975249" />
    <g
       id="g503"
       transform="matrix(0.30973595,0,0,0.30973595,-41.285633,5.9462083)">
      <path
         style="fill:#ffc022"
         d="M 114.67,70.19 C 112.71,44.22 94.44,26.3 64,26.3 c -30.44,0 -48.75,19.03 -50.55,45.01 -1.05,15.14 4.58,28.63 15.91,36.32 7.46,5.07 17.88,7.88 34.77,7.88 17.18,0 27.03,-3.71 34.49,-8.73 12.43,-8.35 17.18,-21.67 16.05,-36.59 z"
         id="path423" />
      <g
         id="g433">
        <g
           id="g431">
          <g
             id="g427">
            <path
               style="fill:#ffc022"
               d="M 53.72,42.6 C 46.3,23.4 30.1,10.34 23.87,8.39 21.52,7.65 18.57,7.58 17.24,9.74 13.88,15.19 9.58,32.69 19.09,57.52 Z"
               id="path425" />
          </g>
          <path
             style="fill:#ffd1d1"
             d="m 36.12,34.21 c 1.54,-1.29 2.29,-2.55 0.6,-5.16 C 34.1,25 29.39,20.27 27.56,18.82 c -3,-2.38 -5.32,-3.18 -6.21,0.65 -1.65,7.08 -1.52,16.69 0.25,21.99 0.62,1.87 2.54,2.86 4.02,1.57 z"
             id="path429" />
        </g>
      </g>
      <path
         style="fill:#ff9b31"
         d="m 54.12,45.02 c 1.13,0.96 3.42,0.82 4.75,-0.72 1.61,-1.87 3.29,-8.17 2.24,-17.91 -4.67,0.17 -9.09,0.84 -13.21,1.97 3.33,5.46 4.13,14.88 6.22,16.66 z"
         id="path435" />
      <path
         style="fill:#ff9b31"
         d="m 73.88,45.02 c -1.13,0.96 -3.42,0.82 -4.75,-0.72 -1.61,-1.87 -3.29,-8.17 -2.24,-17.91 4.67,0.17 9.09,0.84 13.21,1.97 -3.33,5.46 -4.13,14.88 -6.22,16.66 z"
         id="path437" />
      <g
         id="g441">
        <path
           style="fill:#ffc022"
           d="M 79.9,29.22 C 87.98,16.81 99.28,8.47 103.97,6.98 c 2.32,-0.74 5.02,-0.62 6.34,1.55 3.32,5.45 6.13,22.24 -0.42,45.75 L 85.96,42.74 Z"
           id="path439" />
      </g>
      <g
         id="g445">
        <path
           style="fill:#ffd1d1"
           d="m 97.55,38.23 c 2.43,2.43 4.41,4.06 5.84,5.61 0.95,1.03 2.69,0.56 2.97,-0.82 2.45,-11.8 1.67,-21.86 0,-24.5 -0.8,-1.26 -2.29,-1.59 -3.65,-1.13 -2.44,0.81 -8.66,5.45 -13.05,12.22 -0.51,0.79 -0.32,1.85 0.46,2.38 1.58,1.07 4.34,3.14 7.43,6.24 z"
           id="path443" />
      </g>
      <path
         d="m 55.67,77.75 c -0.05,-3.08 4.37,-4.55 8.54,-4.62 4.18,-0.07 8.68,1.29 8.73,4.37 0.05,3.08 -5.22,7.13 -8.54,7.13 -3.31,0 -8.67,-3.81 -8.73,-6.88 z"
         id="path447" />
      <g
         id="g465">
        <g
           id="g455">
          <path
             style="fill:none;stroke:#9e9e9e;stroke-width:3;stroke-linecap:round;stroke-miterlimit:10"
             d="m 6.7,71.03 c 0.34,0.41 4.41,0.35 14.36,5.07"
             id="path449" />
          <path
             style="fill:none;stroke:#9e9e9e;stroke-width:3;stroke-linecap:round;stroke-miterlimit:10"
             d="m 2.9,82.86 c 0,0 6.42,-2.24 17.46,-0.28"
             id="path451" />
          <path
             style="fill:none;stroke:#9e9e9e;stroke-width:3;stroke-linecap:round;stroke-miterlimit:10"
             d="m 8.81,92.29 c 0,0 2.74,-1.38 12.67,-2.25"
             id="path453" />
        </g>
        <g
           id="g463">
          <path
             style="fill:none;stroke:#9e9e9e;stroke-width:3;stroke-linecap:round;stroke-miterlimit:10"
             d="m 120.87,67.51 c 0,0 -3.41,0.33 -13.94,6.34"
             id="path457" />
          <path
             style="fill:none;stroke:#9e9e9e;stroke-width:3;stroke-linecap:round;stroke-miterlimit:10"
             d="m 122.42,78.49 c 0,0 -5.09,-0.36 -16.05,1.97"
             id="path459" />
          <path
             style="fill:none;stroke:#9e9e9e;stroke-width:3;stroke-linecap:round;stroke-miterlimit:10"
             d="m 120.45,89.05 c 0,0 -4.83,-1.71 -14.78,-2.25"
             id="path461" />
        </g>
      </g>
      <path
         style="fill:#000200"
         d="m 96.09,66.37 c -0.34,5.51 -3.76,8.54 -7.65,8.54 -3.89,0 -7.04,-3.88 -7.04,-8.66 0,-4.78 3.28,-8.71 7.65,-8.47 5.07,0.29 7.32,4.09 7.04,8.59 z"
         id="path467" />
      <path
         style="fill:#000200"
         d="m 46,65.81 c 0.78,5.61 -1.58,9.03 -5.49,9.82 -3.91,0.79 -7.26,-1.84 -8.23,-6.64 -0.98,-4.81 0.9,-9.32 5.34,-9.97 5.15,-0.75 7.74,2.2 8.38,6.79 z"
         id="path469" />
      <path
         d="m 44.99,85.16 c -2.57,1.67 0.47,5.54 2.25,6.85 1.78,1.31 4.98,2.92 9.67,2.44 5.54,-0.56 7.13,-4.69 7.13,-4.69 0,0 1.97,4.6 8.82,4.79 6.95,0.19 9.1,-3.57 10.04,-4.69 0.94,-1.13 1.88,-4.04 0.28,-5.16 -1.6,-1.13 -2.72,0.28 -4.41,2.63 -1.69,2.35 -5.16,3.66 -8.54,2.06 -3.38,-1.6 -3.57,-7.04 -3.57,-7.04 l -4.79,0.28 c 0,0 -0.75,4.69 -2.91,6.19 -2.16,1.5 -7.32,1.88 -9.48,-1.41 -0.95,-1.46 -2.33,-3.66 -4.49,-2.25 z"
         id="path471" />
    </g>
  </g>
</svg>
