<svg xmlns="http://www.w3.org/2000/svg" viewBox="0 0 254.6 141.9">
  <path fill="#221213" d="M0 0h55v142H0Z" />
  <path fill="#311f1f" d="M8 0h39v116.8a13.1 13.1 0 0 1-13 13.1H21a13.1 13.1 0 0 1-13-13.1Z" paint-order="stroke fill markers" />
  <path fill="#fff" d="M.3 81c1.3-1 3.5 1 3.5 2.3v24.3c0 1.3-1.6 2.3-3.5 2.3z" paint-order="stroke fill markers" />
  <path fill="#ffd3b0" d="M19.5 80.8s3-1.5 8-1.5 8.4 1.3 8.4 1.3.6-1.4 1.5-1.9c.8-.4 2.3-.6 3.5-.1 1.3.5 4.4 3.8 4.6 4 .2.4.3.8.2.9l-3 4.9.9 2.6c.2.7 1.4 4.1.8 8.2-.7 4-3.7 8.5-9 9.9a29.4 29.4 0 0 1-18.4-.9c-5-2.5-6.6-6.3-6.8-10.3-.2-4 1.4-7.3 1.4-7.3l1.9-2.6-4.2-4.3c0-.4.4-1 2-2.4s3-2.6 4-2.9c1-.3 2-.2 2.8.5.6.6 1.4 2 1.4 2z" />
  <path fill="#ffa5a8" d="M36.5 81.3c-.6.4 0 1.6.4 2.3.5 1.3 1.4 3.8 2.8 5.4 1.6 1.8 3.7 1.6 3.7 1.6l-.6-1.7c0-.3 1.3-2.2 1.6-2.8l1.2-2.4c.1-.5-.2-.4-.4-.3L41 86s-1 .4-1.3 0c-.3-.3-.9-1.9-1.3-2.9-.2-.6-.9-2.3-2-1.7Z" />
  <path fill="#fd7e89" d="M39.7 86c.2.6.9.7 1.6.5 1-.3 1.6-1 2.3-1.4.9-.7 1.8-.9 2-1.1.2-.3.3-1-.2-.8-.5.1-1.1.2-2.1.9L41 85.5c-.6.3-1.6 0-1.4.6z" />
  <path fill="#ffa5a8" d="m15.8 85.7 1.4-3.2c.2-.5.9-2 1.6-1.3.8.6-.2 3-1.1 4.7a18 18 0 0 1-2.8 3.9c-.4.4-1.2.9-2 1h-1.4l.5-1.2.4-.9-1.1-1.7-1.8-3.2c0-.3.3-.2.7-.1.4 0 3.1 1.4 3.1 1.4z" />
  <path fill="#fd7c88" d="M12.9 85.5c.9.5 1.3.9 2.2.8.6-.1.9-.5.8-.7-.1-.3-.6-.2-.9-.2-.6-.2-1.2-.6-1.7-.9-.8-.4-1.6-.9-2.5-1-.7-.2-1.6-.2-1.4.3.2.5.9.4 1.6.7l1.9 1z" />
  <path fill="#312f2c" d="M19.3 100.5c-.5.5-.1 1.2.6 1.7.9.6 2.5 1.9 7.2 1.9 5 0 6.6-1.6 7.2-2 .5-.4 1.1-1 .6-1.6-.4-.5-1.7.4-2 .6-.4.2-3 1.5-5.7 1.5-2.2 0-4.5-.8-5.2-1-1.2-.5-2.2-1.7-2.7-1.1z" />
  <path fill="#fd7e84" d="M27.4 94.8c-2.4-.1-5.9 1.5-5.9 4.6 0 3 3 3.6 5.7 3.7 2.6 0 5.7-1 5.7-3.8 0-2.5-2-4.4-5.5-4.5Z" />
  <path fill="#2c2f31" d="M37.2 94.7c0 1.2-.7 2.4-1.8 2.4s-1.9-1-1.9-2.3c0-1.3.9-2.3 1.9-2.3 1 0 1.8.9 1.8 2.2zm-16.1 0c0 1.3-.6 2.3-1.8 2.3-1.1 0-1.9-1-1.9-2.2 0-1.3 1-2.3 2-2.3.9 0 1.7 1 1.7 2.2zm9.4 4.3c0 1.4-.3 2.5-1 2.5-1 0-1.1-1-1.1-2.3 0-1.3.3-2.3 1-2.2.9 0 1.1.8 1.1 2zm-4.3 0c0 1.3-.3 2.4-1 2.4-1 0-1-1-1-2.4 0-1.2.2-2.2 1-2.1.8 0 1 .8 1 2z" />
  <path fill="#65bc46" d="M23.1 107.7c0-.3.3-.5.6-.8l.3-.4c-2.6-1.3-7.8-3.7-7.9-2.2-.1 2 0 10 1 10.6.7.4 4-1.4 6.4-2.6-.7-.6-.4-2-.4-4.6m6.6 3.3c2 .7 6.2 2.2 7.1 2 1.2-.6 1-10.2-.5-10.5-1-.3-5.2 2.7-6.8 3.9.3 1.2.6 3.6.2 4.5" />
  <path fill="#43a244" d="M24.6 111.8c-1.4-.3-.9-1.7-.9-4.8-.3.2-.6.4-.6.7 0 2.6-.3 4 .4 4.6l.5.2c1.4.3 4 0 4.9-.6l.3-.6a9 9 0 0 1-4.6.5" />
  <path fill="#65bc46" d="M24 106.5c-.2.1-.3.3-.3.4 0 3.2-.5 4.6 1 5a9 9 0 0 0 4.7-.7l.3-.3c.4-.9 0-3.3-.2-4.5a5 5 0 0 0-.2-.6c-.1-.3-1.1-.4-2.2-.3-1.2.1-2.6.4-3.1 1" />
  <path fill="#4f3332" d="M54.2 0h200.4v142H54.2Z" paint-order="stroke fill markers" />
  <path fill="#311f1f" d="M64.5 9h177.8a4.7 4.7 0 0 1 4.6 4.7v23.8a4.7 4.7 0 0 1-4.6 4.7H64.5a4.7 4.7 0 0 1-4.7-4.7V13.7a4.7 4.7 0 0 1 4.7-4.6z" paint-order="stroke fill markers" />
  <path fill="#fdd5ae" d="m70 31.9.6-2.8h-2.8l.2-1.4h2.8l.7-4.1h-2.7l.2-1.4h2.8l.5-2.8h1.4l-.5 2.8h4.1l.5-2.8h1.4l-.5 2.8h2.8l-.2 1.4h-2.8l-.8 4.1h2.8l-.2 1.4h-2.8L77 32h-1.4l.5-2.8H72l-.4 2.8zm3-8.3-.8 4.1h4.2l.7-4.1Z" />
  <path fill="#fdd5ae" d="M95.3 23.6v1.1l-1-.4-1.1-.2q-1.2 0-1.8.8-.7.7-.7 2 0 1.4.7 2.2.6.7 1.8.7h1l1-.5v1.1l-1 .4h-1.1q-1.7 0-2.7-1-1-1-1-2.8 0-1.8 1-2.9 1-1 2.7-1l1.1.1q.6.1 1 .4zm8.3 2.6v4.5h-1.3v-4.4q0-1.1-.4-1.6t-1.2-.5q-1 0-1.5.6-.6.6-.6 1.7v4.2h-1.2V20.4h1.2v4q.4-.6 1-1 .6-.3 1.4-.3 1.3 0 2 .8.6.8.6 2.3zm5.8.8q-1.5 0-2 .3-.7.3-.7 1.1 0 .7.5 1 .4.5 1.1.5 1 0 1.7-.8.6-.7.6-1.9V27zm2.4-.5v4.2h-1.2v-1.1q-.4.6-1 1-.7.3-1.6.3-1.1 0-1.8-.7-.7-.6-.7-1.7 0-1.2.9-1.9.8-.6 2.5-.6h1.7q0-.9-.6-1.3-.5-.5-1.5-.5-.7 0-1.3.2-.6.1-1.1.4v-1l1.3-.5 1.2-.1q1.6 0 2.4.8.8.9.8 2.6zm3.7-5.3v2h2.5v1h-2.5v4q0 1 .2 1.2.3.3 1 .3h1.3v1h-1.2q-1.4 0-2-.5-.5-.6-.5-2v-4h-1v-1h1v-2z" aria-label="chat" font-size="8.5" style="line-height:1.25" />
  <path fill="#fdd5ae" d="m70 67.6.6-2.8h-2.8l.2-1.4h2.8l.7-4.2h-2.7L69 58h2.8l.5-2.8h1.4l-.5 2.8h4.1l.5-2.8h1.4l-.5 2.8h2.8l-.2 1.3h-2.8l-.8 4.2h2.8l-.2 1.4h-2.8l-.5 2.8h-1.4l.5-2.8H72l-.4 2.8zm3-8.4-.8 4.2h4.2l.7-4.2z" />
  <path fill="#fdd5ae" d="M95.3 59.2v1.2l-1-.4-1.1-.2q-1.2 0-1.8.8-.7.7-.7 2 0 1.4.7 2.2.6.7 1.8.7l1-.1q.6-.1 1-.4v1q-.4.3-1 .4-.5.2-1.1.2-1.7 0-2.7-1-1-1.1-1-3 0-1.7 1-2.8 1-1 2.7-1l1.1.1 1 .3zm5 .6q-1 0-1.6.8-.5.7-.5 2 0 1.4.5 2.2.6.7 1.6.7t1.5-.7q.6-.8.6-2.1t-.6-2.1q-.6-.8-1.5-.8zm0-1q1.6 0 2.5 1 .9 1 .9 2.9 0 1.8-1 2.8-.8 1-2.4 1-1.6 0-2.5-1-1-1-1-2.8 0-1.9 1-2.9.9-1 2.5-1zm11.2 1.6q.4-.8 1-1.2.7-.4 1.6-.4 1.1 0 1.7.8.7.8.7 2.3v4.5h-1.3v-4.5q0-1-.3-1.5-.4-.6-1.2-.6-1 0-1.5.7-.5.6-.5 1.7v4.2h-1.3v-4.5q0-1-.3-1.5-.4-.6-1.2-.6-1 0-1.5.7-.5.6-.5 1.7v4.2h-1.2V59h1.2v1q.4-.7 1-1 .6-.3 1.4-.3.8 0 1.3.4.6.4.9 1.2zm13.2 0q.4-.8 1-1.2.7-.4 1.6-.4 1.1 0 1.7.8.7.8.7 2.3v4.5h-1.3v-4.5q0-1-.3-1.5-.4-.6-1.2-.6-1 0-1.5.7-.5.6-.5 1.7v4.2h-1.2v-4.5q0-1-.4-1.5-.4-.6-1.2-.6-1 0-1.5.7-.5.6-.5 1.7v4.2h-1.2V59h1.2v1q.4-.7 1-1 .6-.3 1.4-.3.8 0 1.3.4.6.4.9 1.2zm10.8 2.2q-1.5 0-2 .4-.6.3-.6 1.1 0 .7.4 1 .4.4 1.1.4 1 0 1.7-.7.6-.7.6-1.9v-.3zm2.4-.5v4.3h-1.2v-1.1q-.4.6-1 1-.7.3-1.6.3-1.1 0-1.8-.7-.7-.6-.7-1.7 0-1.2.9-1.9.8-.6 2.5-.6h1.7v-.1q0-.9-.6-1.3-.5-.5-1.5-.5-.7 0-1.3.2-.6.1-1.1.4v-1.1q.6-.3 1.3-.4l1.2-.1q1.6 0 2.4.8.8.9.8 2.5zm8.7-.2v4.5h-1.3v-4.5q0-1-.4-1.5-.4-.6-1.2-.6-1 0-1.5.7-.6.6-.6 1.7v4.2h-1.2V59h1.2v1q.4-.7 1-1 .6-.3 1.4-.3 1.3 0 2 .8.6.8.6 2.3zm7.3-1.9v-4h1.2v10.4h-1.2v-1.1q-.4.6-1 1-.6.3-1.4.3-1.3 0-2.2-1.1-.8-1-.8-2.8 0-1.8.8-2.8.9-1.1 2.2-1.1.8 0 1.4.3.6.3 1 1zm-4.2 2.7q0 1.3.6 2 .5.8 1.5.8t1.5-.7q.6-.8.6-2.1 0-1.4-.6-2.1-.5-.8-1.5-.8t-1.5.8q-.6.7-.6 2zm12.6-3.5v1.1l-1-.4-1.2-.1q-1 0-1.4.3-.4.3-.4.8 0 .4.3.7.3.2 1.3.4l.4.1q1.3.3 1.9.8.5.5.5 1.4 0 1-.8 1.7-.8.6-2.2.6l-1.3-.2q-.6 0-1.3-.3v-1.3q.6.4 1.3.6l1.3.1q.8 0 1.3-.2.5-.3.5-.9 0-.5-.4-.7-.3-.3-1.4-.5l-.5-.1q-1-.3-1.6-.8-.5-.5-.5-1.3 0-1 .8-1.6.7-.6 2-.6h1.3l1.1.4z" aria-label="commands" font-size="8.5" style="line-height:1.25" />
  <path fill="#feb87c" d="M35.3 4.2h-7.8l-1.4-1.9a2 2 0 0 0-1.7-1h-5.6a1 1 0 0 0-1 1v13.6c0 1 .9 2 2 2h15.5c1.1 0 2-1 2-2V6c0-1-.9-2-2-2z" />
  <path fill="#ffc022" d="M43.7 49.8c-.7-8-6.3-13.6-15.7-13.6-9.5 0-15.1 6-15.7 14-.3 4.7 1.4 8.8 5 11.2C19.4 63 22.7 64 28 64a18 18 0 0 0 10.7-2.7c3.8-2.6 5.3-6.8 5-11.4z" />
  <path fill="#ffc022" d="M24.8 41.3a20 20 0 0 0-9.3-10.6c-.7-.2-1.6-.3-2 .4-1 1.7-2.4 7.1.5 14.8Z" />
  <path fill="#ffd1d1" d="M19.3 38.7c.5-.4.7-.8.2-1.6-.8-1.3-2.3-2.7-2.8-3.2-1-.7-1.7-1-2 .2-.5 2.2-.4 5.2.1 6.8.2.6.8 1 1.3.5z" />
  <path fill="#ff9b31" d="M24.9 42c.3.3 1 .3 1.5-.2.5-.6 1-2.5.7-5.5a18 18 0 0 0-4.1.6c1 1.7 1.3 4.6 1.9 5.1zm6.1 0c-.3.3-1 .3-1.5-.2-.5-.6-1-2.5-.6-5.5 1.4 0 2.8.2 4 .6-1 1.7-1.2 4.6-1.9 5.1z" />
  <path fill="#ffc022" d="M32.9 37.1c2.5-3.8 6-6.4 7.4-6.9.8-.2 1.6-.1 2 .5 1 1.7 1.9 7-.1 14.2l-7.4-3.6Z" />
  <path fill="#ffd1d1" d="m38.3 40 1.9 1.7c.3.3.8.1.9-.3.7-3.6.5-6.8 0-7.6-.3-.4-.7-.5-1.2-.3-.7.2-2.6 1.7-4 3.8-.2.2 0 .5.1.7.5.3 1.4 1 2.3 2z" />
  <path d="M25.4 52.2c0-1 1.3-1.4 2.6-1.5 1.3 0 2.7.4 2.7 1.4 0 1-1.6 2.2-2.6 2.2s-2.7-1.2-2.7-2.1z" />
  <path fill="none" stroke="#9e9e9e" stroke-linecap="round" stroke-miterlimit="10" stroke-width=".9" d="M10.2 50c.1.2 1.4.2 4.5 1.7M9 53.8s2-.7 5.4-.1m-3.5 3s.8-.5 3.9-.7m30.8-7s-1 .1-4.3 2m4.7 1.4s-1.5-.1-5 .6m4.4 2.7S44 55 41 55" />
  <path fill="#000200" d="M37.9 48.6c-.1 1.7-1.2 2.7-2.4 2.7s-2.2-1.2-2.2-2.7c0-1.5 1-2.7 2.4-2.6 1.6 0 2.3 1.2 2.2 2.6zm-15.5-.1c.2 1.7-.5 2.8-1.7 3-1.2.3-2.3-.6-2.6-2-.3-1.5.3-3 1.7-3.1 1.6-.3 2.4.6 2.6 2z" />
  <path d="M22 54.5c-.7.5.2 1.7.8 2 .5.5 1.5 1 3 .8C27.5 57.2 28 56 28 56s.6 1.4 2.7 1.5c2.2 0 2.8-1.1 3.1-1.5.3-.3.6-1.2.1-1.6-.5-.3-.8.1-1.4.8-.5.8-1.6 1.2-2.6.7s-1.1-2.2-1.1-2.2h-1.5s-.2 1.5-.9 2-2.3.6-3-.4c-.2-.5-.7-1.2-1.3-.7z" />
</svg>