<svg xmlns="http://www.w3.org/2000/svg" xml:space="preserve" viewBox="0 0 128 128">
   <path fill="#ffd3b0" d="M36.6 10.3S46.7 5 63.8 5c17 0 28.9 4.3 28.9 4.3s2-4.7 4.8-6.2c3-1.6 8-2.3 12.3-.6 4.2 1.7 14.9 13 15.5 14 .6 1 1 2.4.8 2.8L115.7 36s1.5 3.7 3 9c.7 2.2 5 14 2.7 27.9A42 42 0 0 1 91 106.7c-17.8 4.8-45.5 5.8-63-3a39.1 39.1 0 0 1-23.3-35c-.7-13.6 4.7-25 4.7-25l6.6-9S2.2 21 1.8 19.8c-.4-1.1 1.3-3.3 6.7-8A56.2 56.2 0 0 1 22.2 2c3.4-1.1 7-.7 9.4 1.5 2.3 2.1 5 6.8 5 6.8z"/>
   <path fill="#ffa5a8" d="M94.5 12c-2 1 .3 5.2 1.4 7.7 1.8 4.3 4.7 13 9.6 18.4 5.6 6.3 12.8 5.6 12.8 5.6s-1.5-5-2-6c0-1 4.1-7.4 5.3-9.6 1.1-2.2 3.6-6 4-8 .5-1.9-.6-1.3-1.3-1l-14.4 8.4s-3.3 1.3-4.3.1c-1-1.1-3-6.5-4.5-10-.8-2-3-7.7-6.6-5.7z"/>
   <path fill="#fd7e89" d="M105.5 28.1c.6 1.8 3 2 5.4 1.4 3.5-.8 5.7-3.2 7.9-4.9 3-2.2 6.1-2.9 6.8-3.7.8-.8 1-3-.6-2.6-1.7.4-3.8.7-7.2 3-3 1.9-5.4 4-7.5 5-2 1-5.4.1-4.8 1.8z"/>
   <path fill="#ffa5a8" d="M23.7 26.9c.4-.4 4.1-9.3 5-11 .7-1.8 3-6.6 5.5-4.5 2.6 2.1-.6 10.3-4 16A64 64 0 0 1 21 40.9a13 13 0 0 1-7 3.3l-4.8.3S10 42 11 40l1.3-3c0-.5-2.2-3.7-3.7-6a97 97 0 0 1-6.2-10.9c-.1-1 1.2-.6 2.6-.3 1.4.3 10.5 4.8 10.5 4.8Z"/>
   <path fill="#fd7c88" d="M14 26.3c3 1.7 4.6 2.8 7.4 2.5 2.3-.3 3.1-1.5 2.8-2.3-.4-1-1.9-.6-2.9-.8-2.3-.6-4.2-2-6-3-2.6-1.3-5.3-3-8.4-3.6-2.5-.5-5.6-.4-5 1.2.8 1.7 3.2 1.5 5.5 2.6 2.2 1 4.6 2.4 6.5 3.4z"/>
   <path fill="#312f2c" d="M35.7 77.3c-1.6 1.8-.3 4 2.2 5.9 3 2.2 8.5 6.4 24.5 6.4 17 0 22.7-5.4 24.6-6.9 1.8-1.3 4-3.5 2.3-5.3-1.7-1.9-6 1.3-7.2 2a44 44 0 0 1-19.3 5.2A56.1 56.1 0 0 1 45.2 81c-4.3-1.7-7.5-5.8-9.5-3.7Z"/>
   <path fill="#fd7e84" d="M63.4 57.8c-8.1-.4-20 5.4-19.9 15.8C43.7 84 53.5 85.9 63 86c8.9.2 19.4-3.5 19.3-12.8 0-8.5-7-15-19-15.5Z"/>
   <path fill="#2c2f31" d="M96.9 57.4c0 4.4-2.3 8.4-6.2 8.3-3.7 0-6.3-3.5-6.3-7.8 0-4.4 3-7.9 6.3-7.9s6.2 3.1 6.2 7.4zm-54.9.3c0 4.4-2.2 7.8-6 7.9-4 0-6.5-3.3-6.5-7.7 0-4.3 3-7.8 6.4-7.8 3.3 0 6 3.3 6 7.6zm32.2 14.9c0 4.3-1 8.3-3.6 8.3-3 0-3.7-3.8-3.7-8.1 0-4.4 1-7.6 3.7-7.5 2.6 0 3.6 3 3.6 7.3zm-14.6-.4c0 4.3-1 8.3-3.7 8.4-3 0-3.6-3.9-3.6-8.2 0-4.3 1-7.6 3.6-7.5 2.7 0 3.7 3 3.7 7.3z"/>
   <path fill="#65bc46" d="M49 101.9c0-1 .7-1.8 2-2.5 0-.6.3-1.1.8-1.6C43 93.5 25.3 85.3 25 90.3c-.6 6.7 0 34 3.6 36.1 2.3 1.3 13.6-4.5 21.5-8.9-2.2-2-1.2-6.7-1.2-15.6M71.3 113c7.1 2.7 21.2 7.9 24.3 6.8 4.1-1.6 3.1-34.6-1.5-35.7-3.7-.8-18 9.2-23.5 13.3 1 4.2 2.1 12.4.7 15.6"/>
   <path fill="#43a244" d="M54 116c-4.7-1-3.1-5.7-3.1-16.5v-.1c-1.2.7-2 1.5-2 2.5 0 9-1 13.7 1.2 15.6.5.4 1.1.7 2 .9 4.5 1 13.3 0 16.4-2 .5-.4.9-1.1 1.1-2A30.4 30.4 0 0 1 54 116"/>
   <path fill="#65bc46" d="M51.8 97.8c-.5.5-.9 1-.9 1.6 0 10.9-1.6 15.5 3 16.6a30.4 30.4 0 0 0 16.6-2l.8-1c1.4-3.2.2-11.4-.7-15.6l-.6-2c-.5-1.1-3.7-1.4-7.5-1-4.1.4-8.8 1.6-10.7 3.4"/>
 </svg> 