<?xml version="1.0" encoding="UTF-8" standalone="no"?>
<!-- Generator: Adobe Illustrator 24.1.2, SVG Export Plug-In . SVG Version: 6.00 Build 0)  -->

<svg
   version="1.1"
   id="Layer_3"
   x="0px"
   y="0px"
   viewBox="0 0 128 128"
   style="enable-background:new 0 0 128 128;"
   xml:space="preserve"
   sodipodi:docname="PigPigGo.svg"
   inkscape:version="1.1.1 (eb90963e84, 2021-10-02)"
   xmlns:inkscape="http://www.inkscape.org/namespaces/inkscape"
   xmlns:sodipodi="http://sodipodi.sourceforge.net/DTD/sodipodi-0.dtd"
   xmlns="http://www.w3.org/2000/svg"
   xmlns:svg="http://www.w3.org/2000/svg"><defs
   id="defs3566"><linearGradient
     x1="71.0046292%"
     y1="100%"
     x2="0%"
     y2="100%"
     id="linearGradient-1"><stop
       stop-color="#394A9F"
       offset="0%"
       id="stop4022" /><stop
       stop-color="#6176B9"
       offset="100%"
       id="stop4024" /></linearGradient></defs><sodipodi:namedview
   id="namedview3564"
   pagecolor="#505050"
   bordercolor="#eeeeee"
   borderopacity="1"
   inkscape:pageshadow="0"
   inkscape:pageopacity="0"
   inkscape:pagecheckerboard="0"
   showgrid="false"
   inkscape:zoom="2.2060776"
   inkscape:cx="23.797894"
   inkscape:cy="82.272718"
   inkscape:window-width="1360"
   inkscape:window-height="738"
   inkscape:window-x="0"
   inkscape:window-y="0"
   inkscape:window-maximized="1"
   inkscape:current-layer="Layer_3" />
<path
   style="fill:#ffd3b0;stroke-width:1.03324"
   d="m 36.631624,10.259699 c 0,0 10.084399,-5.2385158 27.153484,-5.2385158 17.069085,0 28.899655,4.2672713 28.899655,4.2672713 0,0 1.942487,-4.649569 4.845885,-6.2097569 2.903402,-1.560189 7.955932,-2.32478567 12.223202,-0.5786131 4.26727,1.7461714 14.93028,13.0911195 15.51923,14.0623635 0.5786,0.971243 0.99191,2.376446 0.79559,2.758744 -0.19632,0.39263 -10.4047,16.655789 -10.4047,16.655789 0,0 1.54985,3.760986 3.05838,9.020165 0.64061,2.252458 4.99054,13.938375 2.66575,27.907747 -2.32478,13.969372 -12.36786,28.889327 -30.253193,33.745547 -17.844014,4.84587 -45.57611,5.81711 -63.027493,-2.91373 C 11.182982,95.28482 5.603499,82.214364 4.8285716,68.637622 4.0536431,55.060881 9.4781406,43.695266 9.4781406,43.695266 L 16.070196,34.7061 c 0,0 -13.8453835,-13.700731 -14.2276812,-14.857957 C 1.4498839,18.680585 3.0824003,16.479789 8.5068966,11.819888 13.931394,7.1599855 18.952929,3.0167023 22.207627,1.9524684 c 3.34769,-1.09523218 7.057013,-0.6096102 9.381797,1.5291908 2.324785,2.1284703 5.0422,6.7780398 5.0422,6.7780398 z"
   id="path3541" />
<path
   style="fill:#ffa5a8;stroke-width:1.03324"
   d="m 94.523926,11.912879 c -1.932154,1.126229 0.309971,5.279844 1.353541,7.759614 1.839163,4.360262 4.763223,12.998129 9.598773,18.422625 5.62081,6.30275 12.80182,5.620813 12.80182,5.620813 0,0 -1.45686,-4.949208 -2.03548,-6.106433 0.093,-0.86792 4.17428,-7.273994 5.3315,-9.505787 1.16757,-2.231793 3.58534,-6.013443 4.07096,-7.955929 0.48563,-1.942487 -0.68194,-1.353541 -1.35354,-1.064234 -0.68194,0.289306 -14.35168,8.44155 -14.35168,8.44155 0,0 -3.29602,1.260551 -4.36025,0.093 -1.06424,-1.167559 -3.00672,-6.499064 -4.46359,-9.991407 -0.82659,-1.983817 -3.099712,-7.7492822 -6.592054,-5.713804 z"
   id="path3543" />
<path
   style="fill:#fd7e89;stroke-width:1.03324"
   d="m 105.48658,28.124376 c 0.57861,1.746172 2.98606,1.963152 5.38317,1.384539 3.513,-0.847256 5.70346,-3.223701 7.92492,-4.876882 3.05838,-2.252458 6.10644,-2.91373 6.84004,-3.709323 0.72326,-0.795592 1.0229,-3.058383 -0.65094,-2.614091 -1.67385,0.43396 -3.78166,0.650939 -7.20166,2.91373 -2.94474,1.942487 -5.39351,4.039959 -7.49098,5.093862 -1.90116,0.940245 -5.38317,0.08267 -4.80455,1.808165 z"
   id="path3545" />
<path
   style="fill:#ffa5a8;stroke-width:1.03324"
   d="m 23.736819,26.894824 c 0.361633,-0.43396 4.070956,-9.309471 4.876882,-11.055643 0.795592,-1.746171 3.058383,-6.5507265 5.600147,-4.432589 2.541765,2.118137 -0.65094,10.332376 -3.926303,16.077177 -3.275363,5.744801 -6.912359,11.055642 -9.381797,13.3081 -1.415536,1.291547 -4.070956,3.058384 -7.057013,3.347689 -1.746171,0.175652 -4.7322282,0.216981 -4.7322282,0.216981 0,0 0.7955937,-2.324785 1.7461712,-4.287937 0.320304,-0.671604 1.095232,-2.252457 1.384539,-2.913729 0,-0.506286 -2.2524585,-3.709324 -3.7816494,-6.034108 C 7.618313,29.829219 2.3488007,21.222349 2.2764746,20.199444 2.2041426,19.176539 3.5163589,19.620831 4.8905657,19.910137 6.2647713,20.199444 15.439921,24.714693 15.439921,24.714693 Z"
   id="path3547" />
<path
   style="fill:#fd7c88;stroke-width:1.03324"
   d="m 13.910729,26.305878 c 3.068716,1.65318 4.670234,2.841403 7.490973,2.469437 2.252458,-0.289306 3.13071,-1.456864 2.758744,-2.324784 -0.361633,-0.86792 -1.818497,-0.578613 -2.841404,-0.795593 -2.355781,-0.506285 -4.256938,-1.952818 -6.106433,-2.913729 -2.541764,-1.312213 -5.2385144,-3.058384 -8.2865653,-3.636997 -2.5727621,-0.485621 -5.672474,-0.43396 -4.9492088,1.239885 0.7232665,1.673845 3.0997131,1.446533 5.3831686,2.541765 2.2627904,1.095231 4.6599005,2.407444 6.5507255,3.420016 z"
   id="path3549" />
<path
   style="fill:#312f2c;stroke-width:1.03324"
   d="m 35.732708,77.296153 c -1.663514,1.787501 -0.289307,4.081289 2.180131,5.889454 2.986057,2.180131 8.441551,6.39574 24.508395,6.39574 16.945096,0 22.6589,-5.383167 24.622052,-6.840032 1.766836,-1.312211 3.895306,-3.56467 2.22146,-5.383168 -1.673845,-1.818498 -5.96178,1.384538 -7.129338,2.035478 -1.16756,0.65094 -10.105064,5.310841 -19.342208,5.166188 C 55.302228,84.44616 47.521949,81.945722 45.197164,80.995144 40.898896,79.259305 37.695858,75.188349 35.732708,77.296153 Z"
   id="path3551" />
<path
   style="fill:#fd7e84;stroke-width:1.03324"
   d="m 63.371813,57.79896 c -8.069585,-0.392631 -20.00348,5.383167 -19.858826,15.787869 0.144653,10.404704 10.032736,12.274863 19.486861,12.512508 8.87551,0.21698 19.414533,-3.492343 19.342207,-12.801813 C 82.290393,64.845639 75.223048,58.387905 63.371813,57.79896 Z"
   id="path3553" />
<path
   style="fill:#2c2f31;stroke-width:1.03324"
   d="m 96.900372,57.437326 c 0,4.339599 -2.324784,8.358892 -6.22009,8.286566 -3.678326,-0.07233 -6.292417,-3.513008 -6.292417,-7.852606 0,-4.339597 2.975725,-7.852605 6.292417,-7.852605 3.316693,0 6.22009,3.079048 6.22009,7.418645 z"
   id="path3555" />
<path
   style="fill:#2c2f31;stroke-width:1.03324"
   d="m 41.994127,57.726633 c 0,4.339598 -2.180132,7.780279 -6.075437,7.852606 -3.967632,0.07233 -6.437069,-3.296029 -6.437069,-7.635626 0,-4.339598 3.089379,-7.852606 6.39574,-7.852606 3.30636,0 6.116766,3.296028 6.116766,7.635626 z"
   id="path3557" />
<path
   style="fill:#2c2f31;stroke-width:1.03324"
   d="m 74.210475,72.553592 c 0,4.339598 -1.04357,8.307231 -3.636997,8.358893 -3.058383,0.07232 -3.636996,-3.812648 -3.636996,-8.141913 0,-4.329266 1.022905,-7.563299 3.636996,-7.490973 2.676086,0.07233 3.636997,2.934395 3.636997,7.273993 z"
   id="path3559" />
<path
   style="fill:#2c2f31;stroke-width:1.03324"
   d="m 59.579831,72.191959 c 0,4.339598 -1.04357,8.307231 -3.636996,8.358892 -3.058384,0.07233 -3.636997,-3.812646 -3.636997,-8.141912 0,-4.329265 1.022906,-7.5633 3.636997,-7.490972 2.676085,0.07232 3.636996,2.934394 3.636996,7.273992 z"
   id="path3561" />
<g
   id="g4067"
   transform="matrix(1.2057354,0,0,1.2057354,-88.990394,-89.709563)"><g
     transform="matrix(0.85693558,0,0,0.85693558,93.545323,143.49956)"
     id="g4065"
     inkscape:transform-center-x="-62.646439"
     inkscape:transform-center-y="-17.162904"><path
       d="m 24.316,17.97 c 0,-0.921 0.741,-1.736 1.917,-2.431 C 26.266,14.98 26.57,14.46 27.08,13.983 18.707,9.82 1.495,1.883 1.126,6.783 c -0.506,6.491 0,32.941 3.49,34.942 2.234,1.274 13.234,-4.38 20.883,-8.627 -2.207,-1.881 -1.183,-6.447 -1.183,-15.128"
       fill="#65bc46"
       id="path4057" /><path
       d="m 45.925,28.686 c 0.036,0.014 0.075,0.029 0.111,0.043 6.854,2.645 20.498,7.624 23.461,6.537 3.995,-1.527 2.995,-33.453 -1.489,-34.47 -3.592,-0.797 -17.343,8.892 -22.753,12.839 0.957,4.041 2.115,12.045 0.67,15.051"
       fill="#65bc46"
       id="path4059" /><path
       d="m 29.214,31.611 c -4.495,-0.996 -2.993,-5.493 -2.993,-15.971 0,-0.034 0.01,-0.067 0.012,-0.101 -1.176,0.695 -1.917,1.51 -1.917,2.431 0,8.681 -1.024,13.247 1.183,15.128 0.456,0.389 1.04,0.672 1.811,0.843 4.48,1.004 12.965,0 15.969,-1.993 0.503,-0.334 0.848,-0.998 1.074,-1.874 -3.516,1.684 -11.024,2.473 -15.139,1.537"
       fill="#43a244"
       id="path4061" /><path
       d="m 27.08,13.983 c -0.51,0.477 -0.814,0.997 -0.847,1.556 -0.002,0.034 -0.012,0.067 -0.012,0.101 0,10.478 -1.502,14.975 2.993,15.971 4.115,0.936 11.623,0.147 15.139,-1.537 0.305,-0.146 0.591,-0.296 0.831,-0.456 0.301,-0.201 0.544,-0.522 0.741,-0.932 1.445,-3.006 0.287,-11.01 -0.67,-15.051 -0.211,-0.889 -0.411,-1.589 -0.572,-1.999 -0.413,-1.022 -3.594,-1.285 -7.203,-0.932 -4.014,0.393 -8.549,1.55 -10.4,3.279"
       fill="#65bc46"
       id="path4063" /></g></g></svg>
